<?xml version="1.0" encoding="utf-8"?>
<!-- Generator: Adobe Illustrator 22.0.1, SVG Export Plug-In . SVG Version: 6.00 Build 0)  -->
<svg version="1.1" id="Layer_1" xmlns="http://www.w3.org/2000/svg" xmlns:xlink="http://www.w3.org/1999/xlink" x="0px" y="0px"
	 viewBox="0 0 1440 1024" style="enable-background:new 0 0 1440 1024;" xml:space="preserve">
<style type="text/css">
	.st0{fill:#FFFFFF;}
	.st1{opacity:0;fill:#FFFFFF;}
</style>
<rect class="st0" width="1440" height="1024"/>
<rect x="367" y="257" class="st1" width="710" height="7"/>
<rect x="365" y="760.5" class="st1" width="710" height="7"/>
<rect x="361" y="260.5" class="st1" width="6" height="503.5"/>
<rect x="1077" y="264" class="st0" width="5" height="500"/>
<rect x="1035.5" y="889.7" transform="matrix(0.8085 0.5886 -0.5886 0.8085 766.5023 -568.9848)" class="st0" width="443.8" height="6.8"/>
<rect x="-36.3" y="127.2" transform="matrix(0.8085 0.5886 -0.5886 0.8085 112.439 -84.2087)" class="st0" width="443.8" height="6.8"/>
<rect x="180.3" y="675.7" transform="matrix(0.577 0.8167 -0.8167 0.577 808.9925 227.0217)" class="st1" width="10.1" height="437.8"/>
<rect x="1252.4" y="-81.8" transform="matrix(0.577 0.8167 -0.8167 0.577 643.8405 -968.9577)" class="st1" width="10.1" height="437.8"/>
</svg>
