<?xml version="1.0" encoding="utf-8"?>
<!-- Generator: Adobe Illustrator 22.0.1, SVG Export Plug-In . SVG Version: 6.00 Build 0)  -->
<svg version="1.1" id="Layer_1" xmlns="http://www.w3.org/2000/svg" xmlns:xlink="http://www.w3.org/1999/xlink" x="0px" y="0px"
	 viewBox="0 0 1440 1024" style="enable-background:new 0 0 1440 1024;" xml:space="preserve">
<style type="text/css">
	.st0{fill:#FFFFFF;}
</style>
<g>
	<g>
		<path class="st0" d="M1,7c0-2,0-4,0-6c478.3,0,956.7,0,1435,0c-1.3,1.2-2.5,2.5-4,3.5c-116.7,83.4-233.4,166.7-350.2,249.9
			c-2.7,2-6.6,3.3-10,3.3c-233.2,0.2-466.3,0.2-699.5,0c-3.4,0-7.2-1.3-10-3.2c-117.4-82.9-234.8-166-352.1-249
			C8.5,4.3,6.8,3.1,5.1,1.9C3.5,3.9,2.2,5.5,1,7z"/>
		<path class="st0" d="M1436,1025c-477.3,0-954.7,0-1432,0c1.1-1,2.1-2,3.3-2.9c118.8-83.5,237.6-167,356.4-250.4
			c2.2-1.6,5.5-2.4,8.3-2.4c233.4-0.1,466.9-0.1,700.3,0c3.1,0,6.6,1.1,9.1,2.9c117,83.1,234,166.3,350.9,249.6
			C1433.7,1022.7,1434.8,1023.9,1436,1025z"/>
		<path class="st0" d="M1,1018C1,681.3,1,344.7,1,8c1,0.5,2.1,1,3,1.7c118,83.5,236,167,354.1,250.4c3.1,2.2,4.1,4.5,4.1,8.2
			c-0.1,163.5-0.1,326.9,0,490.4c0,3.9-1,6.3-4.3,8.6C238.9,850.8,119.9,934.4,1,1018z"/>
		<path class="st0" d="M1441,7c0,337.3,0,674.7,0,1012c-0.8-0.5-1.7-1-2.5-1.6C1321.2,934,1204,850.6,1086.7,767.3
			c-3.1-2.2-3.7-4.5-3.7-7.9c0.1-163.8,0.1-327.6-0.1-491.4c0-4.4,1.5-6.8,5-9.3c83.8-59.7,167.6-119.5,251.4-179.3
			C1373.1,55.2,1407.1,31.1,1441,7z"/>
		<path d="M1441,7c-33.9,24.1-67.9,48.2-101.7,72.4c-83.8,59.8-167.5,119.6-251.4,179.3c-3.4,2.4-5,4.8-5,9.3
			c0.1,163.8,0.1,327.6,0.1,491.4c0,3.4,0.6,5.7,3.7,7.9c117.3,83.3,234.5,166.8,351.8,250.2c0.8,0.6,1.7,1,2.5,1.6c0,2,0,4,0,6
			c-1.7,0-3.3,0-5,0c-1.2-1.1-2.3-2.3-3.6-3.2c-116.9-83.2-233.9-166.5-350.9-249.6c-2.5-1.8-6.1-2.9-9.1-2.9
			c-233.4-0.1-466.9-0.1-700.3,0c-2.8,0-6,0.8-8.3,2.4C244.9,855.1,126.1,938.6,7.3,1022.1c-1.2,0.8-2.2,1.9-3.3,2.9
			c-1.7,0-3.8,0.6-3.1-2.5c0.3-1.4,0.1-3,0.1-4.5c118.9-83.6,237.9-167.2,356.9-250.8c3.3-2.3,4.3-4.7,4.3-8.6
			c-0.1-163.5-0.1-326.9,0-490.4c0-3.7-1-6-4.1-8.2C240,176.7,122,93.1,4,9.7C3.1,9,2,8.5,1,8c0-0.3,0-0.7,0-1
			c1.2-1.5,2.5-3.1,4.1-5.1c1.7,1.2,3.4,2.4,5.1,3.6c117.3,83,234.7,166.1,352.1,249c2.8,1.9,6.6,3.2,10,3.2
			c233.2,0.1,466.3,0.1,699.5,0c3.4,0,7.2-1.3,10-3.3C1198.6,171.3,1315.3,87.9,1432,4.5c1.4-1,2.6-2.4,4-3.5c1.7,0,3.3,0,5,0
			C1441,3,1441,5,1441,7z M1075.7,761.9c0-165.9,0-331.3,0-496.8c-235.6,0-470.8,0-706.3,0c0,165.7,0,331.1,0,496.8
			C604.9,761.9,840.2,761.9,1075.7,761.9z"/>
		<path class="st0" d="M1075.7,761.9c-235.6,0-470.8,0-706.3,0c0-165.7,0-331.1,0-496.8c235.5,0,470.8,0,706.3,0
			C1075.7,430.6,1075.7,596,1075.7,761.9z M633.8,569c2.8-6,2.1-110-1.2-113.3c0,18.9,0,36.8,0,54.8c-28.2,0-55.4,0-83.1,0
			c0-6.4,0-12.3,0-18.3c0-6.2,0.1-12.3,0-18.5c-0.1-5.7,0.6-11.5-0.4-17.1c-0.6,0-1.3,0.1-1.9,0.1c0,37.1,0,74.2,0,111.5
			c0.8-0.2,1.4-0.2,1.4-0.3c0.5-17.8,0.9-35.6,1.4-53.6c27.5,0,54.9,0,82.5,0c0,6.4,0,12.4,0,18.4c0,6.2-0.2,12.3,0.1,18.5
			C632.8,556.8,631.4,562.6,633.8,569z M839.5,456.6c-30.9,0-55.8,24.6-55.9,55.3c-0.2,30.5,24.7,55.3,55.7,55.6
			c30.9,0.2,56.3-24.8,56.2-55.5C895.3,481.2,870.4,456.6,839.5,456.6z M671.7,459.4c0,35,0,69.7,0,104.7c-4,0-7.7-0.2-11.3,0.1
			c-3.1,0.3-6.8-1.4-10.4,2.4c16.1,0,31,0,45.9,0c0-0.8,0-1.4,0-1.5c-6.8-0.5-13.6-1-20.6-1.5c0-34.7,0-69.4,0-104.5
			c5.9,0,11.5,0.1,17.1-0.1c1.3,0,2.5-0.8,3.8-1.2c-0.1-0.5-0.3-0.9-0.4-1.4c-14.8,0-29.7,0-44.6,0c0,0.9,0,1.8,0.1,1.8
			C657.9,458.6,664.6,459,671.7,459.4z M713.1,455.9c-0.6,0.1-1.1,0.2-1.7,0.3c0,36.8,0,73.6,0,110.8c11.3,0,22.4,0,33.5,0
			c11.2,0,22.3,0,33.5-0.1c1.3,0,2.5-0.7,3.8-1.1c-0.1-0.6-0.3-1.2-0.4-1.8c-11.3,0-22.6,0-33.8,0c-11.2,0-22.5,0-33.9,0
			c0-13.2,0-25.7,0-38.2c0-21.8,0-43.6,0-65.4C713.9,458.9,713.4,457.4,713.1,455.9z"/>
		<path d="M633.8,569c-2.5-6.4-1-12.3-1.3-17.9c-0.3-6.2-0.1-12.3-0.1-18.5c0-6,0-12,0-18.4c-27.7,0-55,0-82.5,0
			c-0.5,17.9-0.9,35.8-1.4,53.6c0,0.1-0.6,0.1-1.4,0.3c0-37.2,0-74.3,0-111.5c0.6,0,1.3-0.1,1.9-0.1c1,5.6,0.3,11.4,0.4,17.1
			c0.1,6.2,0,12.3,0,18.5c0,6,0,12,0,18.3c27.7,0,54.9,0,83.1,0c0-18,0-35.9,0-54.8C635.9,459,636.6,563,633.8,569z"/>
		<path d="M839.5,456.6c30.9,0,55.8,24.6,55.9,55.3c0.1,30.7-25.2,55.8-56.2,55.5c-31-0.2-55.8-25.1-55.7-55.6
			C783.7,481.2,808.6,456.6,839.5,456.6z M786.5,512.2c0.2,29,24.1,52.6,53.2,52.3c29.3-0.3,53-24,52.8-52.8
			c-0.3-29-24.2-52.6-53.2-52.3C809.9,459.7,786.4,483.3,786.5,512.2z"/>
		<path d="M671.7,459.4c-7-0.4-13.7-0.8-20.4-1.2c-0.1,0-0.1-0.9-0.1-1.8c14.9,0,29.8,0,44.6,0c0.1,0.5,0.3,0.9,0.4,1.4
			c-1.3,0.4-2.5,1.1-3.8,1.2c-5.6,0.1-11.2,0.1-17.1,0.1c0,35.2,0,69.9,0,104.5c7,0.5,13.8,1,20.6,1.5c0,0,0,0.6,0,1.5
			c-14.9,0-29.8,0-45.9,0c3.6-3.8,7.3-2.1,10.4-2.4c3.6-0.3,7.3-0.1,11.3-0.1C671.7,529,671.7,494.4,671.7,459.4z"/>
		<path d="M713.1,455.9c0.3,1.5,0.9,3,0.9,4.5c0.1,21.8,0,43.6,0,65.4c0,12.5,0,24.9,0,38.2c11.4,0,22.7,0,33.9,0
			c11.3,0,22.6,0,33.8,0c0.1,0.6,0.3,1.2,0.4,1.8c-1.3,0.4-2.5,1.1-3.8,1.1c-11.2,0.1-22.3,0.1-33.5,0.1c-11.1,0-22.2,0-33.5,0
			c0-37.2,0-74,0-110.8C711.9,456.1,712.5,456,713.1,455.9z"/>
		<path class="st0" d="M786.5,512.2c-0.2-28.9,23.4-52.5,52.7-52.8c29-0.3,53,23.3,53.2,52.3c0.3,28.8-23.5,52.5-52.8,52.8
			C810.7,564.8,786.7,541.2,786.5,512.2z"/>
	</g>
</g>
</svg>
